<svg width="16" height="16" viewBox="0 0 16 16" fill="none" xmlns="http://www.w3.org/2000/svg">
<g id="IconArrowRightCircle">
<path id="Vector" fill-rule="evenodd" clip-rule="evenodd" d="M8 14.6667C11.6819 14.6667 14.6667 11.6819 14.6667 8C14.6667 4.3181 11.6819 1.33333 8 1.33333C4.3181 1.33333 1.33333 4.3181 1.33333 8C1.33333 11.6819 4.3181 14.6667 8 14.6667ZM9.13807 5.52859C8.87773 5.26825 8.4556 5.26825 8.19527 5.52859C7.93493 5.78895 7.93493 6.21105 8.19527 6.47141L9.0572 7.33333H5.33333C4.96515 7.33333 4.66667 7.6318 4.66667 8C4.66667 8.3682 4.96515 8.66667 5.33333 8.66667H9.0572L8.19527 9.5286C7.93493 9.78893 7.93493 10.2111 8.19527 10.4714C8.4556 10.7317 8.87773 10.7317 9.13807 10.4714L11.1381 8.4714C11.3984 8.21107 11.3984 7.78893 11.1381 7.5286L9.13807 5.52859Z" fill="#939393"/>
</g>
</svg>
