<svg xmlns="http://www.w3.org/2000/svg" fill="none" viewBox="0 0 125 25"><path fill="#fff" d="M19.9 0c2 .64 5.91 1.08 7.07 2.97a27 27 0 0 1 4.15 14.34c-.01 1 .08 1.95-.13 2.92-2.31 1.95-5.12 3.08-7.9 4.16-.59-.9-1.21-2.07-1.77-2.88 1.03-.43 1.75-.84 2.72-1.3l-.63-.54c-.74.39-1.22.6-2 .88-2.89 1.07-7.1 1.16-10.08.46-1.3-.3-2.46-.77-3.66-1.31l-.7.5c1 .49 1.69.88 2.76 1.27-.63 1-.9 1.81-1.71 2.81-2.55-.61-5.85-2.44-7.94-4.03-.11-.8-.03-1.94-.06-2.74C-.14 13.48.79 9.4 2.6 5.8c.43-.86 1.53-3.3 2.36-3.77C6.65 1.09 9.1.44 11.01.08h.06c.37.24.8 1.35.93 1.79 1.72-.52 5.28-.37 7.07-.07zm-9.07 16.54c3.7-1.24 2.64-6.6-.9-6.35-3.59 1.41-2.86 6.53.9 6.35m10.33.02c1.94-.76 2.83-2.68 2.04-4.6a3 3 0 0 0-1.6-1.58c-.5-.2-.77-.22-1.3-.18-3.57 1.32-2.94 6.38.86 6.36M41.67 6.19c2.3.3 5.18-.1 7.55.08 1.66.12 3.2.42 4.57 1.44a5.8 5.8 0 0 1 2.2 4.93 6 6 0 0 1-1.94 4.14c-2.42 1.89-4.58 1.77-7.46 1.75-1.53 0-3.37-.03-4.88.05-.05-4 .12-8.45-.04-12.4m4.41 9.26c1.58-.1 3.04.25 4.32-.85 1.14-1.08 1.33-3.13.22-4.3-1.12-1.2-3.05-.84-4.53-.96v3.9c0 .65.04 1.6 0 2.21M120.38 5.86h4.24c-.11 1.22-.06 3.97-.05 5.3.02 2.37-.07 5.1.04 7.45h-.03c-.92-.11-3.27-.13-4.19-.01a50 50 0 0 1 .01-2.15c-1.25 2.1-2.49 2.57-4.88 2.45a4.3 4.3 0 0 1-3.31-2.17c-2.39-4.18.3-10.11 5.63-8.73 1.3.33 1.92 1.2 2.55 2.28.04-1.37.01-3.04-.01-4.42m-1.67 9.7a2.29 2.29 0 1 0-1.22-4.4 2.29 2.29 0 0 0 1.22 4.4M92.8 7.85c1.76-.32 4.2.25 5.63 1.34a4.9 4.9 0 0 1 1.9 3.23c.5 3.78-2.01 6.04-5.57 6.48-1.96.1-3.75-.03-5.36-1.25a5.4 5.4 0 0 1-1.74-6.55c1-2.2 2.88-2.97 5.14-3.25m1.15 7.87a2.35 2.35 0 1 0-.31-4.68 2.35 2.35 0 0 0 .3 4.68M67.96 7.85c1.83-.32 3.94.35 5.6 1.06l-.02 2.89a7.6 7.6 0 0 0-3.75-1.13c-.48-.02-1.92-.05-1.93.65.51.78 4.4.64 5.42 1.94.59.6.82 1.27.82 2.13 0 3.03-3.17 3.54-5.41 3.54-2.07.02-3.56-.5-5.33-1.45q-.01-1.5-.04-3.03c1.35 1.06 3.25 1.45 4.91 1.67.35.05 1.03-.2 1.32-.42.4-.77-1.58-1.15-2.13-1.22-2.6-.34-5.05-2.15-3.37-4.95.69-1.15 2.54-1.53 3.91-1.68M80.86 7.85c1.35-.32 4 .27 5.16 1.09.03 1.07 0 2.21 0 3.3a5.5 5.5 0 0 0-4.96-.7c-2.03.68-2.06 2.91-.04 3.67 1.77.67 3.36.17 5.02-.53-.02.48 0 1.03 0 1.52v1.69c-1.15.48-1.9.8-3.19.98-3.29.46-7.15-.9-7.64-4.6a5.3 5.3 0 0 1 .96-4.18c1.28-1.56 2.74-2.02 4.69-2.24M108.37 8.1l.49-.02c.5-.02 1.22-.05 1.62.33.46.46.22 3.1.23 3.89a4 4 0 0 0-2.23-.43c-2.24.33-2.38 2.51-2.3 4.32.03.82-.04 1.6.07 2.42a36 36 0 0 0-4.28-.04c-.16-.2-.07-9.25-.12-10.45.67.11 3.45.1 4.16.02-.02.87-.07 2.02.1 2.85.38-1.43.75-2.37 2.26-2.88M57.43 10.67c1.59.61 2.6.55 4.2.03.05 2.54-.03 5.15 0 7.72l.04.18-.08.08c-1.16 0-3.1-.07-4.17.04.1-2.43.02-5.57.01-8.05M59.24 5.48c.37-.04.98.12 1.3.29.48.26.85.7 1 1.23.36 1.2-.54 2.1-1.64 2.41-2.81.14-3.64-3.12-.66-3.93"/></svg>