<svg xmlns="http://www.w3.org/2000/svg" fill="none" viewBox="0 0 114 25"><g clip-path="url(#a)"><mask id="b" width="114" height="25" x="0" y="0" maskUnits="userSpaceOnUse" style="mask-type:luminance"><path fill="#fff" d="M114 0H0v25h114z"/></mask><g mask="url(#b)"><path fill="#fff" d="M16.05 17.67c-3.11-.36-5.3-2.5-5.3-5.3 0-1.12.42-2.34 1.13-3.16-.3-.74-.26-2.33.1-2.98a4.3 4.3 0 0 1 2.96 1.01c.9-.27 1.84-.4 3-.4 1.15 0 2.09.13 2.94.38a4.4 4.4 0 0 1 2.97-1c.32.62.37 2.2.07 2.97a5 5 0 0 1 1.15 3.19c0 2.78-2.19 4.88-5.35 5.27.8.5 1.35 1.58 1.35 2.83v2.35c0 .68.58 1.06 1.3.79a11.5 11.5 0 0 0 7.6-10.72c0-6.4-5.42-11.63-12.08-11.63S5.85 6.5 5.85 12.9c0 5.02 3.32 9.18 7.8 10.74.63.23 1.24-.18 1.24-.79v-1.8c-.33.13-.75.22-1.13.22-1.55 0-2.47-.82-3.13-2.33-.26-.61-.54-.97-1.08-1.04-.28-.02-.38-.14-.38-.27 0-.28.47-.48.94-.48.69 0 1.28.4 1.89 1.25.47.65.96.95 1.55.95s.97-.2 1.51-.73c.4-.38.7-.72.99-.95"/><mask id="c" width="74" height="19" x="34" y="3" maskUnits="userSpaceOnUse" style="mask-type:luminance"><path fill="#fff" d="M108 3.52H34.64v17.94H108z"/></mask><g mask="url(#c)"><path fill="#fff" d="M52.3 20.89V9.14h3.44v11.75zm10.11 0c-2.29 0-3.18-.94-3.18-2.93V11.9h-2.18V9.14h2.18V6.8l3.44-.78v3.12h2.55v2.76h-2.55v5.33c0 .65.3.9.98.9h1.57v2.76zm23.99.2c-2.68 0-4.14-1.41-4.14-4V9.13h3.46v7.07c0 1.44.68 2.23 1.96 2.23 1.48 0 2.61-1.31 2.61-3.11v-6.2h3.47V20.9h-3.47V18.9a4.4 4.4 0 0 1-3.9 2.2m16.52 0c-1.67 0-3.2-.91-3.92-2.23v2.03h-3.44V4.49h3.46v6.8a4.5 4.5 0 0 1 3.9-2.42c3.34 0 5.1 2.21 4.99 6.12.11 3.87-1.72 6.1-4.99 6.1m-1.22-2.77c1.8 0 2.77-1.28 2.66-3.33.11-2.07-.87-3.34-2.66-3.34-1.43 0-2.56 1.34-2.68 3.18V15c.12 1.9 1.25 3.3 2.68 3.3M76.86 4.5v6.65h-6.49V4.5h-3.7v16.39h3.7v-6.57h6.5v6.57h3.7V4.49zM42.87 21.2c-5.05 0-8.23-3.32-8.23-8.53s3.25-8.49 8.38-8.49c4.19 0 6.71 1.72 7.52 4.6l-3.75.86c-.46-1.57-1.76-2.43-3.77-2.43-2.98 0-4.59 1.89-4.59 5.46s1.57 5.5 4.5 5.5c2.7 0 4.32-1.59 4.32-4.29v-.62l.96 1.27h-5.58v-3H51v1.9c0 5-3.02 7.77-8.12 7.77M54.02 8.03c1.15 0 2.05-.86 2.05-1.97s-.9-1.96-2.05-1.96-2.05.86-2.05 1.96c0 1.11.9 1.97 2.05 1.97"/></g></g></g><defs><clipPath id="a"><path fill="#fff" d="M0 0h114v25H0z"/></clipPath></defs></svg>