<svg xmlns="http://www.w3.org/2000/svg" fill="none" viewBox="0 0 100 23"><path fill="#fff" fill-rule="evenodd" d="M11.84.04q5.51-.12 11.03.13c2.18.1 5.25-.12 7.02 1.43.39.33.98 1.25 1.09 1.76.42 1.84.56 3.8.65 5.68.07 3.24.04 6.57-.67 9.75a4 4 0 0 1-2.8 2.69c-2.76.64-5.78.54-8.63.61-3 .13-6.14.03-9.15-.05-2.17-.05-4.34-.01-6.48-.47a4.2 4.2 0 0 1-3.13-2.51 24 24 0 0 1-.72-5.28c-.1-3.41-.13-7.22.67-10.55.1-.42.62-1.18.9-1.49C3.15.14 6.32.25 8.36.18zm.85 6.3c0 3.14-.03 6.33 0 9.48 1.7-1 3.5-1.99 5.16-3 .98-.57 2.08-1.18 3.03-1.78l-5.36-3.1c-.8-.45-2.02-1.2-2.83-1.6" clip-rule="evenodd"/><path fill="#fff" d="M80.93.65q1.53 0 3.07.02c-.1 2.5.1 4.95-.14 7.48.4-.72.93-1.31 1.7-1.63.77-.3 1.7-.29 2.46.04.67.29 1 .81 1.25 1.47.74 1.87.67 7.6.33 9.64a8 8 0 0 1-.6 1.87c-1.09 2.03-3.87 1.78-5.07.03l-.22 1.15-2.81.02c-.12-4.42-.02-9.26-.02-13.71L80.87 3c0-.57-.03-1.86.06-2.36m4.19 18.05c.2-.02.66-.08.76-.3 1.05-2.3.54-5.47.55-7.97 0-.77-.23-1.7-1.05-1.84-.79.18-1.35.8-1.38 1.6-.04 1.59-.05 3.22-.03 4.8.02.92-.08 2.25.01 3.1.43.35.6.48 1.14.6M48.1 6.3c1.14 0 2.26.07 3.22.77.8.58 1.38 2.12 1.47 3.09.17 2.45.32 5.11-.1 7.53-.38 2.21-1.6 3.05-3.66 3.3-2.36.08-4.2-.6-4.62-3.14-.5-3-.8-7.53.85-10.25.52-.85 1.94-1.19 2.85-1.3m.47 12.51c.76-.13.98-.85 1.02-1.56.14-2.4.2-4.98-.02-7.38-.06-.66-.35-1.33-1.09-1.36-.26.08-.55.17-.7.43-.6 1.14-.51 7.98-.09 9.26.07.2.14.4.36.5.15.06.36.1.52.11M94.73 6.36c.87-.16 2.68.13 3.34.73 1.92 1.74 1.22 5.36 1.46 7.65q-2.68-.03-5.36 0c.05 1.17-.42 4.95 1.73 3.86.49-.25.57-1.8.61-2.26.7.09 2.24.05 2.8.2l.06.1c0 .95-.1 2.17-.7 2.95-1.26 1.68-4.48 1.85-6.09.62-1.72-1.41-1.6-4.28-1.59-6.31.01-2.1-.19-4.57 1.11-6.32.6-.8 1.68-1.1 2.63-1.22m.91 6.51.57.03c-.03-1.23.48-4.56-1.26-4.4-.4.26-.56.46-.65.95-.21 1.09-.05 2.33-.13 3.43zM59.68 6.56c.8.1 2.45.06 3.24.01q.03 2.01.02 4.02v10.14l-2.81.01q-.08-.8-.15-1.6c-.26.5-.5.9-.91 1.28-1.1.97-3.1.8-4.05-.29a3.6 3.6 0 0 1-.73-1.9c-.17-1.71-.04-3.46-.08-5.19.04-2.01-.1-4.5.04-6.45q1.63.03 3.25 0c.07 3.65-.07 7.31.04 10.96.04 1.8 2.06 1.21 2.1-.19.12-3.58-.08-7.22.04-10.8M76 6.62c.94-.07 2.18.02 3.23-.05v4.09c0 3.27-.06 6.82.04 10.08h-2.78q-.13-.9-.18-1.81c-.22.53-.43 1.09-.9 1.48-1.43 1.2-4.1.7-4.6-1.25-.42-1.71-.24-3.45-.28-5.2v-1.33c.06-1.99-.09-4.05.04-6.03 1.06 0 2.13.03 3.19-.01q.03 3.72 0 7.43c0 1.16-.01 2.37.04 3.53.03.27.08.58.24.8.53.75 1.8.07 1.86-.65.09-.91.05-1.93.05-2.86l-.01-4.87c0-1.06-.03-2.3.06-3.35M41.98 1.4c1.03 0 2.28.02 3.29-.05-.26.64-.41 1.44-.6 2.11-.54 1.86-1.02 3.78-1.57 5.63-.31 1.61-1.34 4.03-1.5 5.53a41 41 0 0 0 0 6.14h-3.35c-.04-1.4-.01-2.79-.02-4.18 0-.55.03-1.95-.09-2.43-.3-1.16-.65-2.4-.98-3.55L35.4 4.12c-.12-.45-.8-2.51-.69-2.74 1.03.01 2.1-.02 3.12.03.33.82.4 1.73.62 2.58.64 2.42 1.02 4.82 1.44 7.28.38-1.95.68-3.95 1.18-5.87.32-1.28.55-2.78.91-4"/><path fill="#fff" d="m62.1 1.38 6.05.02c1.06 0 2.33.03 3.37-.05 0 .88.04 1.9-.02 2.76-.71.08-2.42.06-3.16.03.08 4.47 0 9.2 0 13.68 0 .9-.02 2.04.04 2.92h-3.3c-.19-4.28.06-8.7-.05-13-.02-1.14-.03-2.46.02-3.6-.83.06-2.19.02-3.06.02-.04-.43-.17-2.53.1-2.78"/></svg>