<svg xmlns="http://www.w3.org/2000/svg" fill="none" viewBox="0 0 12 22"><path fill="currentColor" d="M1.674 8.519a.557.557 0 0 1 1.11.099l-.01.116a23.851 23.851 0 0 0 .052 3.83l.015.153c.313 3.207 1.131 5.375 2.15 6.563.51.595 1.055.93 1.604 1.051.546.122 1.15.045 1.803-.277 1.183-.585 1.507-1.797 1.476-3.353-.015-.766-.115-1.554-.208-2.31-.09-.731-.178-1.467-.137-2.05.127-1.823 1.043-2.808 1.651-3.093a.557.557 0 1 1 .474 1.008c-.185.087-.91.675-1.014 2.163-.031.453.038 1.072.132 1.836.09.74.2 1.59.216 2.424.033 1.644-.292 3.482-2.097 4.374-.842.416-1.705.55-2.538.366-.83-.185-1.576-.676-2.209-1.415-1.233-1.439-2.09-3.873-2.412-7.18l-.015-.159a24.87 24.87 0 0 1-.045-4.132l.002-.014Zm5.577 1.51a.557.557 0 0 1 1.108.113l-.016.178c-.076.88-.104 1.535.094 2.647l.015.085c.152.872.227 1.629.109 2.223-.064.32-.188.62-.408.868-.223.25-.51.41-.836.5a2.239 2.239 0 0 1-1.093.046c-.424-.097-.83-.345-1.155-.797-.618-.86-.924-2.427-.725-5.119a.557.557 0 0 1 1.112.082c-.197 2.655.145 3.87.517 4.387.17.236.345.325.499.36.168.039.357.02.547-.032a.591.591 0 0 0 .3-.167.71.71 0 0 0 .149-.345c.074-.374.037-.948-.113-1.811l-.015-.085c-.237-1.327-.181-2.107-.09-3.12v-.014ZM5.324.756C6.004.47 6.754.42 7.544.626l.041.011c.869.236 1.479.663 1.835 1.27.353.6.406 1.292.337 1.952a.557.557 0 1 1-1.109-.116c.057-.538-.004-.958-.189-1.272-.17-.29-.494-.57-1.135-.75l-.063-.017c-.568-.149-1.064-.106-1.504.08-.447.188-.872.54-1.259 1.061l-.895-.664c.474-.639 1.047-1.14 1.72-1.424Zm-.826 2.088a.557.557 0 0 1-.895-.664l.895.664Z"/><path fill="currentColor" d="M3.109 1.845c.877 0 1.852.278 2.588 1.16l.035.042.009.011a.557.557 0 0 1-.866.7l-.01-.01-.022-.028C4.37 3.153 3.747 2.96 3.11 2.96c-.663 0-1.301.214-1.671.407a.557.557 0 0 1-.515-.989 4.962 4.962 0 0 1 2.186-.532ZM6.95 3.371c.507-.22 1.318-.348 2.2-.096.885.253 1.804.877 2.548 2.092l.035.059.007.012a.557.557 0 0 1-.956.572l-.007-.012-.03-.048c-.61-1-1.31-1.434-1.903-1.604-.621-.177-1.168-.076-1.452.047a.557.557 0 1 1-.443-1.022ZM4.014 6.597a1.438 1.438 0 1 0-1.438 1.438V9.15a2.553 2.553 0 1 1 0-5.105 2.553 2.553 0 0 1 0 5.105V8.035c.794 0 1.438-.644 1.438-1.438ZM9.562 8.026a1.438 1.438 0 1 0-1.438 1.439v1.114a2.553 2.553 0 1 1 0-5.105 2.553 2.553 0 0 1 0 5.105V9.465c.794 0 1.438-.644 1.438-1.439Z"/></svg>