<svg xmlns="http://www.w3.org/2000/svg" viewBox="0 0 1024 1024" role="img" aria-label="Mastra Studio">
  <defs>
    <linearGradient id="background" x1="512" y1="0" x2="512" y2="716.8" gradientUnits="userSpaceOnUse">
      <stop offset="0" stop-color="rgb(0 0 0)" />
      <stop offset="1" stop-color="rgb(25 25 25)" />
    </linearGradient>
  </defs>
  <rect width="1024" height="1024" rx="224" fill="url(#background)" />
  <g transform="translate(172 299) scale(1)">
    <path
        fill="#ffffff"
        d="M92.5 240.3c51.1 0 92.5 41.4 92.5 92.5S143.6 425.3 92.5 425.3 0 383.9 0 332.8s41.4-92.5 92.5-92.5ZM213.5 0C264.6 0 306 41.4 306 92.5c0 7-0.8 13.8-2.3 20.3-6.4 28.7-11.9 61.2 4.5 85.6l26 38.7c1.6 2.4 4.4 3.7 7.3 3.5 2.5-0.1 4.9-1.4 6.3-3.5l26-38.8c16.2-24.2 11-56.3 4.8-84.7-1.4-6.4-2.1-13-2.1-19.8 0-51.1 41.4-92.5 92.5-92.5s92.5 41.4 92.5 92.5c0 7.8-1 15.4-2.8 22.6-6.6 26.4-12.2 55.9 1.4 79.5l25 43.2c0.5 0.8 1.3 1.3 2.3 1.3 51.1 0 92.5 41.4 92.5 92.5s-41.4 92.5-92.5 92.5-92.5-41.4-92.5-92.5c0-8 1-15.7 2.9-23.1 6.8-26.6 12.7-56.4-1.1-80.2l-23.8-41.2c-0.8-1.4-2.3-2.2-3.9-2.2-0.4 0-0.7 0.2-0.9 0.4l-26.4 39.3c-16.5 24.6-10.8 57.4-4.2 86.3 1.5 6.7 2.3 13.5 2.3 20.6 0 51.1-41.4 92.5-92.5 92.5s-92.5-41.4-92.5-92.5c0-5.4 0.5-10.6 1.3-15.7 4.5-26.5 7.8-55.8-7.2-78.1l-18-26.8c-11.5-17.1-31.3-26-50.5-33.4-34.8-13.3-59.5-47-59.5-86.4C121 41.4 162.4 0 213.5 0Z"
      />
  </g>
</svg>
