<svg xmlns="http://www.w3.org/2000/svg" viewBox="0 0 1024 1024" role="img" aria-label="Mastra Studio">
  <defs>
    <clipPath id="squircle">
      <rect x="52" y="46" width="920" height="920" rx="238" />
    </clipPath>
  </defs>

  <rect x="70" y="74" width="884" height="884" rx="220" fill="#000000" opacity="0.24" />
  <g clip-path="url(#squircle)">
    <rect x="52" y="46" width="920" height="920" rx="238" fill="#07090a" />
    <circle cx="192" cy="130" r="360" fill="#19d3ca" opacity="0.34" />
    <circle cx="864" cy="232" r="332" fill="#ff6aa8" opacity="0.22" />
    <circle cx="742" cy="842" r="360" fill="#6c6fff" opacity="0.16" />
    <rect x="52" y="46" width="920" height="920" rx="238" fill="#111418" opacity="0.82" />
    <path
      fill="#ffffff"
      opacity="0.16"
      d="M126 148C218 80 348 72 486 100C360 126 267 184 214 283C178 349 142 394 88 414V236C88 200 102 170 126 148Z"
    />
    <path
      fill="#ffffff"
      opacity="0.08"
      d="M104 722C278 782 432 806 590 772C740 740 840 768 972 838V966H52V760C68 738 84 726 104 722Z"
    />
    <rect x="92" y="86" width="840" height="840" rx="216" fill="#ffffff" opacity="0.055" />
    <rect
      x="92"
      y="86"
      width="840"
      height="840"
      rx="216"
      fill="none"
      stroke="#ffffff"
      stroke-width="3"
      stroke-opacity="0.28"
    />
    <path
      fill="none"
      stroke="#ffffff"
      stroke-opacity="0.3"
      stroke-width="3"
      d="M210 96H360C520 96 650 128 766 194"
    />
  </g>

  <path
    transform="translate(156 296) scale(21.55)"
    fill="#f8fbff"
    d="M4.49805 11.6934C6.98237 11.6934 8.99609 13.7081 8.99609 16.1924C8.9959 18.6765 6.98225 20.6904 4.49805 20.6904C2.01394 20.6903 0.000196352 18.6765 0 16.1924C0 13.7081 2.01382 11.6935 4.49805 11.6934ZM10.3867 0C12.8709 0 14.8846 2.01388 14.8848 4.49805C14.8848 4.8377 14.847 5.16846 14.7755 5.48643C14.4618 6.88139 14.1953 8.4633 14.9928 9.65L16.2575 11.5319C16.3363 11.6491 16.4727 11.7115 16.6137 11.703C16.7369 11.6957 16.8525 11.6343 16.9214 11.5318L18.1876 9.64717C18.9772 8.47198 18.7236 6.90783 18.4205 5.52484C18.3523 5.21392 18.3164 4.89094 18.3164 4.55957C18.3167 2.07546 20.3313 0.0615234 22.8154 0.0615234C25.2994 0.0617476 27.3132 2.0756 27.3135 4.55957C27.3135 4.93883 27.2665 5.30712 27.178 5.65896C26.8547 6.94441 26.5817 8.37932 27.2446 9.52714L28.459 11.6301C28.4819 11.6697 28.5245 11.6934 28.5703 11.6934C31.0545 11.6935 33.0684 13.7081 33.0684 16.1924C33.0682 18.6765 31.0544 20.6903 28.5703 20.6904C26.0861 20.6904 24.0725 18.6765 24.0723 16.1924C24.0723 15.8049 24.1212 15.4288 24.2133 15.0701C24.5458 13.7746 24.8298 12.3251 24.1609 11.1668L23.0044 9.16384C22.9656 9.09659 22.8931 9.05859 22.8154 9.05859C22.7983 9.05859 22.7824 9.06614 22.7728 9.08033L21.4896 10.9895C20.686 12.1851 20.9622 13.781 21.284 15.1851C21.3582 15.5089 21.3975 15.8461 21.3975 16.1924C21.3973 18.6764 19.3834 20.6902 16.8994 20.6904C14.4152 20.6904 12.4006 18.6765 12.4004 16.1924C12.4004 15.932 12.4226 15.6768 12.4651 15.4286C12.6859 14.14 12.8459 12.7122 12.1167 11.6271L11.2419 10.3253C10.6829 9.49347 9.71913 9.05932 8.78286 8.70188C7.0906 8.05584 5.88867 6.41734 5.88867 4.49805C5.88886 2.0139 7.90254 3.29835e-05 10.3867 0Z"
  />
  <path
    transform="translate(156 296) scale(21.55)"
    fill="#7cf7ff"
    opacity="0.16"
    d="M10.3867 0C12.8709 0 14.8846 2.01388 14.8848 4.49805C14.8848 4.8377 14.847 5.16846 14.7755 5.48643C14.4618 6.88139 14.1953 8.4633 14.9928 9.65L16.2575 11.5319C16.3363 11.6491 16.4727 11.7115 16.6137 11.703C16.7369 11.6957 16.8525 11.6343 16.9214 11.5318L18.1876 9.64717C18.9772 8.47198 18.7236 6.90783 18.4205 5.52484C18.3523 5.21392 18.3164 4.89094 18.3164 4.55957C18.3167 2.07546 20.3313 0.0615234 22.8154 0.0615234C25.2994 0.0617476 27.3132 2.0756 27.3135 4.55957C27.3135 4.93883 27.2665 5.30712 27.178 5.65896C25.942 3.82604 24.2134 2.91016 22.4355 2.91016C20.2118 2.91016 18.5364 4.2783 17.668 6.40723C16.4918 8.9415 14.9889 8.98535 13.9199 6.31543C13.0076 4.13872 11.7506 2.87109 10.3867 2.87109C8.2832 2.87109 6.88867 3.95703 5.88867 4.49805C5.88886 2.0139 7.90254 3.29835e-05 10.3867 0Z"
  />
</svg>
